<?xml version="1.0" encoding="UTF-8" standalone="no"?><!DOCTYPE svg PUBLIC "-//W3C//DTD SVG 1.1//EN" "http://www.w3.org/Graphics/SVG/1.1/DTD/svg11.dtd"><svg width="100%" height="100%" viewBox="0 0 416 416" version="1.1" xmlns="http://www.w3.org/2000/svg" xmlns:xlink="http://www.w3.org/1999/xlink" xml:space="preserve" xmlns:serif="http://www.serif.com/" style="fill-rule:evenodd;clip-rule:evenodd;stroke-linejoin:round;stroke-miterlimit:2;"><g><path d="M207.933,0c114.838,0 207.929,93.096 207.929,207.933c0,114.833 -93.092,207.929 -207.929,207.929c-114.837,0 -207.929,-93.096 -207.929,-207.929c0,-114.838 93.092,-207.933 207.929,-207.933Z" style="fill:#fff;"/><path d="M415.867,207.933c0,114.838 -93.096,207.929 -207.934,207.929c-114.837,0 -207.933,-93.092 -207.933,-207.929c0,-114.842 93.096,-207.933 207.933,-207.933c114.838,0 207.934,93.092 207.934,207.933Z" style="fill:#fff;fill-rule:nonzero;"/><path d="M415.863,207.933c0,114.833 -93.092,207.929 -207.929,207.929c-114.837,0 -207.929,-93.096 -207.929,-207.929c0,-114.838 93.092,-207.933 207.929,-207.933c114.838,0 207.929,93.096 207.929,207.933Z" style="fill:#fff;fill-rule:nonzero;"/><path d="M344.946,344.946c-36.596,36.596 -85.254,56.75 -137.012,56.75c-51.754,0 -100.412,-20.154 -137.012,-56.75c-28.521,-28.525 -47.054,-64.375 -53.846,-103.308l62.396,0c14.954,56.958 66.879,99.1 128.462,99.1c61.588,0 113.508,-42.142 128.467,-99.1l62.392,0c-6.792,38.933 -25.321,74.783 -53.846,103.308Zm-137.012,-14.996c-67.279,0 -122.017,-54.737 -122.017,-122.017c0,-67.283 54.738,-122.021 122.017,-122.021c67.283,0 122.021,54.737 122.021,122.021c0,67.279 -54.738,122.017 -122.021,122.017Zm138.6,-260.617c-37.021,-37.021 -86.246,-57.408 -138.6,-57.408c-52.354,0 -101.575,20.388 -138.596,57.408c-37.021,37.021 -57.408,86.242 -57.408,138.6c0,52.354 20.388,101.575 57.408,138.596c37.021,37.021 86.242,57.408 138.596,57.408c52.354,0 101.579,-20.388 138.6,-57.408c37.017,-37.021 57.408,-86.242 57.408,-138.596c0,-52.358 -20.392,-101.579 -57.408,-138.6Z" style="fill:#00437b;fill-rule:nonzero;"/><path d="M207.933,92.554c-63.617,0 -115.375,51.758 -115.375,115.379c0,63.617 51.758,115.375 115.375,115.375c63.621,0 115.379,-51.758 115.379,-115.375c0,-63.621 -51.758,-115.379 -115.379,-115.379Z" style="fill:#00a5c8;fill-rule:nonzero;"/><path d="M257.625,288.308l-35.229,0l-0.067,-0.013c-6.792,-0.162 -11.008,-3.171 -14.4,-6.558c-3.45,3.413 -7.929,6.571 -14.967,6.571l-34.867,0c-5.975,0 -10.583,-3.625 -12.633,-9.95l-10.117,-31.125c-2.55,-7.846 -1.225,-12.408 1.325,-17.308c-5.404,-2.742 -8.879,-5.967 -11.238,-13.208l-10.217,-31.396c-2.104,-5.542 -0.246,-11.812 4.566,-15.312l25.742,-18.7c4.192,-3.046 8.142,-5.571 14.012,-5.571c1.337,0 2.738,0.125 4.333,0.388c1.171,-7.638 4.575,-11.475 9.962,-15.392l25.921,-18.833c2.321,-1.842 5.216,-2.854 8.187,-2.854c2.792,0 5.467,0.871 7.729,2.517l26.934,19.583c6.441,4.679 8.463,8.996 9.383,14.954c1.567,-0.258 2.979,-0.383 4.292,-0.383c5.896,0 9.871,2.542 14.092,5.608l25.258,18.363c4.913,3.258 7.063,9.412 5.234,15.033l-1.817,5.592l-0.017,-0.004l-8.359,25.7l-0.037,0.096c-2.446,6.708 -4.833,10.583 -11.425,13.838c3.017,5.787 3.754,9.767 0.817,18.804l-9.667,29.754l-0.067,0.163c-1.721,4.4 -5.312,9.646 -12.667,9.646Z" style="fill:#00437b;"/><path d="M207.938,273.029c-4.392,4.737 -7.567,9.362 -14.975,9.362l-34.867,0c-3.804,0 -5.921,-2.517 -7.008,-5.862l-10.117,-31.125c-2.125,-6.542 -0.904,-9.471 1.833,-14.383l2.104,-3.771l-4.088,-1.892c-5.142,-2.375 -7.766,-4.338 -9.762,-10.471l-10.267,-31.554c-1.196,-3.004 -0.262,-6.55 2.471,-8.538l25.742,-18.7c5.608,-4.079 8.396,-5.233 15.009,-3.933l4.958,0.975l0.625,-5.204c0.754,-6.271 2.917,-8.925 7.717,-12.413l26.042,-18.925c2.483,-2.033 6.117,-2.225 8.838,-0.25l26.933,19.583c5.354,3.892 6.542,6.912 7.213,12.517c0.187,1.562 0.375,3.129 0.563,4.692c1.825,-0.358 3.696,-0.775 5.529,-1.108c6.154,-1.117 8.987,0.104 14.463,4.083l25.379,18.45c2.7,1.733 4.008,5.129 2.967,8.329l-0.012,-0.004l-10.15,31.192c-2.237,6.129 -3.933,8.467 -9.171,10.888c-1.65,0.758 -3.292,1.521 -4.937,2.283l2.042,3.662c3.175,5.696 4.037,7.854 1.388,16.004l-9.613,29.592c-1.35,3.45 -3.296,5.883 -7.158,5.883l-34.667,0c-0.017,0 -0.029,-0.004 -0.046,-0.004c-7.442,0 -10.508,-4.542 -14.975,-9.358Z" style="fill:#fff;"/><path d="M206.658,236.821l-1.792,2.467c-1.104,1.529 -1.162,3.65 0.004,5.263c0.1,0.133 0.204,0.258 0.313,0.379l17.513,18.904c0.833,0.9 1.971,1.392 3.137,1.433l24.617,0.008l7.604,-23.412c0.321,-1.121 0.204,-2.358 -0.396,-3.425l-4.75,-8.517l8.971,-4.15c1.938,3.475 3.875,6.95 5.813,10.425l0.012,0.021l0.179,0.325c0.925,1.763 1.058,3.787 0.467,5.596l-10.725,33.017l-34.712,-0.008c-1.904,0 -3.783,-0.75 -5.179,-2.175l-0.254,-0.271l-0.012,-0.021l0,0.004c-7.829,-8.442 -15.658,-16.879 -23.488,-25.321l0,-0.004c-0.187,-0.2 -0.362,-0.412 -0.525,-0.642c-1.888,-2.596 -1.796,-6.029 -0.012,-8.496l7.117,-9.796l6.1,8.396Zm-0.129,27.104l-6.725,-7.246l-6.629,7.154c-0.829,0.9 -1.971,1.392 -3.133,1.433l-24.621,0.008l-7.604,-23.412c-0.321,-1.121 -0.204,-2.358 0.396,-3.425l12.563,-22.504c0.083,-0.138 0.171,-0.275 0.267,-0.408c1.167,-1.608 3.208,-2.212 5.004,-1.633l2.9,0.942l6.096,-8.396l-11.517,-3.742c-2.9,-0.933 -6.192,0.038 -8.075,2.637c-0.167,0.225 -0.317,0.458 -0.45,0.7l0,-0.004c-5.613,10.058 -11.213,20.117 -16.817,30.167l-0.012,0.021l-0.183,0.325c-0.925,1.767 -1.054,3.787 -0.467,5.6l10.729,33.013l34.708,-0.008c1.908,0 3.787,-0.75 5.179,-2.171l0.254,-0.275l0.017,-0.017c2.708,-2.921 5.412,-5.838 8.121,-8.758Zm-2.779,-51.412l-4.708,-1.529l-6.096,8.396l4.704,1.529l13.354,18.379c1.109,1.525 1.167,3.65 -0.004,5.263c-0.096,0.133 -0.2,0.258 -0.308,0.379l-1.354,1.458l6.729,7.258c1.942,-2.092 3.883,-4.188 5.829,-6.288c0.183,-0.2 0.358,-0.412 0.525,-0.642c1.887,-2.596 1.796,-6.029 0.012,-8.496l-18.683,-25.708Zm-45.808,1.946l-4.817,8.633c-3.613,-1.671 -7.221,-3.342 -10.838,-5.017l-0.021,-0.008l-0.338,-0.154c-1.787,-0.883 -3.079,-2.442 -3.666,-4.254l-0.004,0l-10.737,-33.008l28.075,-20.412c1.542,-1.117 3.504,-1.617 5.467,-1.283l0.367,0.071l0.025,0.004c11.292,2.225 22.588,4.442 33.887,6.667c0.267,0.054 0.537,0.125 0.804,0.208c3.05,0.992 4.996,3.821 5.004,6.867l0.004,12.104l-9.871,-3.208l0,-3.038c-0.004,-1.888 -1.208,-3.638 -3.1,-4.254c-0.158,-0.05 -0.317,-0.092 -0.475,-0.125l-25.283,-4.988c-1.2,-0.238 -2.412,0.033 -3.379,0.683l-19.917,14.475l7.621,23.408c0.4,1.096 1.221,2.025 2.337,2.538l8.854,4.092Zm43.221,-9.908l-18.671,25.717l-0.004,0c-1.792,2.462 -5.025,3.608 -8.079,2.617c-0.267,-0.087 -0.525,-0.188 -0.775,-0.3c-2.596,-1.2 -5.187,-2.4 -7.779,-3.6l4.821,-8.642l1.808,0.833c0.146,0.067 0.296,0.125 0.454,0.179c1.892,0.613 3.896,-0.1 5.004,-1.625l13.346,-18.383l0,-4.958l9.871,3.208l0.004,4.954Zm25.483,-11.004l0.004,-10.379l2.892,-0.938c1.792,-0.587 3.087,-2.275 3.087,-4.262c0,-0.163 -0.008,-0.329 -0.025,-0.488l-3.062,-25.592c-0.142,-1.217 -0.775,-2.283 -1.692,-3l-19.912,-14.475l-19.917,14.475c-0.917,0.717 -1.546,1.783 -1.692,3l-1.158,9.7l-6.421,-1.263l-3.283,-0.646c0.479,-3.958 0.954,-7.917 1.429,-11.875l0.004,-0.021l0.046,-0.371c0.287,-1.971 1.371,-3.683 2.908,-4.804l28.083,-20.408l28.079,20.408c1.542,1.121 2.625,2.833 2.912,4.804l0.046,0.371l0,0.021c1.371,11.433 2.75,22.858 4.121,34.292c0.033,0.271 0.05,0.55 0.05,0.829c0,3.208 -2.092,5.933 -4.984,6.879l-11.517,3.742Zm-18.708,6.079l4.716,-1.529l0,-10.383l-4.716,1.533l-21.604,-7.017c-1.796,-0.587 -3.092,-2.275 -3.092,-4.262c0,-0.163 0.012,-0.329 0.029,-0.488l0.229,-1.954l-9.704,-1.913c-0.342,2.825 -0.683,5.654 -1.021,8.483c-0.029,0.271 -0.046,0.55 -0.046,0.829c0,3.208 2.087,5.933 4.983,6.879l30.225,9.821Zm28.2,17.633l-9.871,3.208l7.117,9.8c1.796,2.462 5.029,3.608 8.083,2.617c0.267,-0.087 0.525,-0.188 0.775,-0.3c10.45,-4.838 20.892,-9.671 31.342,-14.508l0.021,-0.008l0.337,-0.154c1.787,-0.883 3.083,-2.442 3.671,-4.254l10.742,-33.008l-28.079,-20.412c-1.538,-1.117 -3.504,-1.617 -5.467,-1.283l-0.366,0.071l-0.021,0.004c-3.913,0.771 -7.825,1.542 -11.738,2.308l1.179,9.817l9.583,-1.892c1.204,-0.238 2.412,0.033 3.379,0.683l19.917,14.475l-7.621,23.408c-0.4,1.096 -1.221,2.025 -2.333,2.538l-23.396,10.808c-0.146,0.067 -0.3,0.125 -0.458,0.179c-1.892,0.613 -3.892,-0.1 -5.004,-1.625l-1.792,-2.471Zm-21.425,-12.708l2.908,4.004l9.867,-3.204l-2.904,-4.004l0.008,-22.717c0.004,-1.888 1.204,-3.638 3.1,-4.254c0.154,-0.05 0.313,-0.092 0.471,-0.125l1.929,-0.379l-1.175,-9.825c-2.796,0.55 -5.588,1.096 -8.383,1.65c-0.271,0.054 -0.538,0.125 -0.804,0.208c-3.054,0.992 -5,3.821 -5.008,6.867l-0.008,31.779Zm-2.592,7.963l30.225,-9.821l0,0.004c2.9,-0.938 6.192,0.038 8.079,2.637c0.163,0.225 0.313,0.458 0.45,0.696c1.392,2.496 2.783,4.992 4.171,7.487l-8.983,4.15l-0.967,-1.733c-0.079,-0.138 -0.171,-0.279 -0.262,-0.412c-1.171,-1.608 -3.208,-2.213 -5.004,-1.629l-21.608,7.017l-2.908,4.004l-6.1,-8.396l2.908,-4.004Z" style="fill:#00a5c8;"/><path d="M243.629,195.158c8.296,-0.583 11.9,4.183 15.558,10.767l2.538,-1.171c0.05,-0.029 0.104,-0.054 0.163,-0.075c0.271,-0.133 0.504,-0.308 0.692,-0.512c0.183,-0.2 0.333,-0.433 0.441,-0.683l5.329,-16.325l0,-0.004l-13.883,-10.104c-0.238,-0.142 -0.496,-0.242 -0.758,-0.296c-0.271,-0.054 -0.563,-0.062 -0.862,-0.012c-0.058,0.017 -0.117,0.029 -0.175,0.038l-2.741,0.537c0.892,7.479 0.762,13.45 -6.3,17.842Zm-13.642,41.946c3.129,7.704 -0.283,12.604 -5.408,18.129l1.9,2.05c0.041,0.042 0.083,0.083 0.121,0.129c0.212,0.217 0.454,0.383 0.704,0.5c0.246,0.113 0.512,0.183 0.787,0.204l17.171,0.004l5.3,-16.333c0.063,-0.271 0.079,-0.546 0.046,-0.817c-0.029,-0.271 -0.116,-0.55 -0.258,-0.821c-0.029,-0.05 -0.058,-0.104 -0.087,-0.158l-1.362,-2.437c-6.829,3.171 -12.55,4.9 -18.913,-0.454l0,0.004Zm-44.133,0c-3.129,7.704 0.283,12.604 5.408,18.129l-1.9,2.05c-0.042,0.042 -0.083,0.083 -0.121,0.129c-0.213,0.217 -0.454,0.383 -0.704,0.5c-0.246,0.113 -0.512,0.183 -0.788,0.204l-17.175,0.004l-5.296,-16.333c-0.062,-0.271 -0.079,-0.546 -0.046,-0.817c0.029,-0.271 0.117,-0.55 0.254,-0.821c0.033,-0.05 0.062,-0.104 0.087,-0.158l1.362,-2.437c6.833,3.171 12.55,4.9 18.917,-0.454l0,0.004Zm-13.558,-41.946c-8.296,-0.583 -11.9,4.183 -15.558,10.767l-2.533,-1.171c-0.054,-0.029 -0.108,-0.054 -0.167,-0.075c-0.271,-0.133 -0.5,-0.308 -0.691,-0.512c-0.183,-0.2 -0.329,-0.433 -0.442,-0.683l-5.329,-16.325l0,-0.004l13.883,-10.104c0.238,-0.142 0.496,-0.242 0.763,-0.296c0.271,-0.054 0.562,-0.062 0.858,-0.012c0.058,0.017 0.116,0.029 0.179,0.038l2.737,0.537c-0.892,7.479 -0.762,13.45 6.3,17.842Zm35.642,-25.829c2,-8.071 7.642,-10.029 15.033,-11.483l-0.333,-2.775c-0.008,-0.058 -0.017,-0.121 -0.021,-0.179c-0.046,-0.3 -0.138,-0.575 -0.275,-0.817c-0.133,-0.238 -0.308,-0.45 -0.517,-0.629l-13.888,-10.096l-13.892,10.096c-0.209,0.179 -0.384,0.392 -0.517,0.629c-0.133,0.242 -0.229,0.517 -0.275,0.817c-0.004,0.058 -0.013,0.121 -0.021,0.179l-0.333,2.775c7.392,1.454 13.033,3.413 15.038,11.483Z" style="fill:#00437b;"/><path d="M56.658,214.225c2.633,-0.025 3.517,-0.45 3.763,-1.121c0.212,-0.571 0.258,-1.212 0.267,-1.754c0.008,-0.371 0.079,-0.571 0.279,-0.567c0.271,0.004 0.333,0.308 0.325,0.779c-0.038,2.196 -0.158,3.546 -0.171,4.183c-0.004,0.304 0.071,1.892 0.046,3.65c-0.008,0.437 -0.046,0.742 -0.354,0.733c-0.2,0 -0.262,-0.204 -0.258,-0.542c0.008,-0.437 -0.017,-1.05 -0.146,-1.521c-0.254,-0.883 -1.229,-1.033 -4.167,-1.117l-19.975,-0.625c-0.675,-0.012 -1.146,-0.121 -1.142,-0.458c0.008,-0.371 0.45,-0.671 1.067,-1.233c0.446,-0.396 6.029,-5.437 11.004,-10.287c2.333,-2.258 7.267,-6.733 7.817,-7.3l0,-0.171l-15.158,0.092c-2.058,0 -2.704,0.296 -3.058,1.1c-0.208,0.504 -0.221,1.313 -0.229,1.788c-0.004,0.404 -0.108,0.537 -0.313,0.533c-0.271,-0.004 -0.3,-0.375 -0.291,-0.879c0.029,-1.758 0.158,-3.375 0.171,-4.083c0.004,-0.371 -0.075,-1.658 -0.05,-3.313c0.008,-0.438 0.046,-0.775 0.317,-0.771c0.204,0.004 0.3,0.208 0.296,0.613c-0.008,0.337 -0.008,0.608 0.083,1.017c0.254,0.946 0.958,1.229 2.85,1.292l21.292,0.717c0.742,0.013 1.042,0.154 1.037,0.458c-0.004,0.371 -0.383,0.771 -0.762,1.133c-2.058,2.096 -6.55,6.342 -10.083,9.796c-3.704,3.621 -7.983,7.3 -8.633,7.896l-0.004,0.1l14.183,-0.137Z" style="fill:#fff;fill-rule:nonzero;"/><path d="M48.558,176.729c-5.004,-1.142 -5.925,-1.35 -6.992,-1.525c-1.133,-0.192 -1.721,-0.046 -2.2,0.987c-0.125,0.246 -0.283,0.8 -0.392,1.263c-0.079,0.358 -0.191,0.542 -0.421,0.492c-0.229,-0.054 -0.246,-0.3 -0.129,-0.796c0.2,-0.888 0.45,-1.833 0.638,-2.654c0.229,-0.85 0.433,-1.6 0.538,-2.058c0.242,-1.054 1.733,-7.604 1.846,-8.237c0.075,-0.637 0.129,-1.179 0.121,-1.458c0.004,-0.171 -0.046,-0.392 -0.008,-0.558c0.038,-0.163 0.175,-0.167 0.337,-0.129c0.233,0.054 0.588,0.308 2.079,0.75c0.321,0.108 1.758,0.504 2.138,0.662c0.158,0.071 0.337,0.179 0.287,0.408c-0.054,0.233 -0.233,0.263 -0.529,0.192c-0.233,-0.05 -0.8,-0.146 -1.229,-0.071c-0.646,0.096 -1.116,0.333 -1.687,1.933c-0.196,0.546 -1.046,3.988 -1.196,4.646c-0.038,0.163 0.046,0.25 0.275,0.304l8.325,1.896c0.229,0.054 0.371,0.05 0.417,-0.146c0.163,-0.725 1.025,-4.508 1.133,-5.279c0.112,-0.808 0.125,-1.325 -0.133,-1.696c-0.213,-0.288 -0.346,-0.458 -0.308,-0.621c0.029,-0.133 0.117,-0.217 0.317,-0.171c0.196,0.046 0.691,0.296 2.341,0.808c0.65,0.183 1.942,0.583 2.171,0.638c0.267,0.058 0.629,0.142 0.563,0.437c-0.054,0.229 -0.2,0.267 -0.366,0.229c-0.338,-0.042 -0.763,-0.142 -1.213,-0.138c-0.696,0.013 -1.296,0.363 -1.704,1.55c-0.208,0.608 -0.983,3.858 -1.162,4.65c-0.038,0.163 0.083,0.225 0.283,0.271l2.6,0.592c1.121,0.258 4.138,0.979 5.1,1.162c2.283,0.454 2.9,0.038 3.663,-3.317c0.196,-0.858 0.512,-2.237 0.313,-3.183c-0.2,-0.946 -0.8,-1.5 -2.1,-2.037c-0.346,-0.146 -0.463,-0.242 -0.408,-0.475c0.058,-0.262 0.321,-0.2 0.65,-0.125c0.758,0.171 2.938,0.946 3.558,1.258c0.8,0.425 0.733,0.721 0.45,1.971c-0.563,2.471 -1.042,4.263 -1.396,5.671c-0.392,1.4 -0.654,2.412 -0.879,3.4c-0.083,0.363 -0.25,1.088 -0.396,1.883c-0.171,0.758 -0.3,1.629 -0.45,2.288c-0.1,0.425 -0.25,0.633 -0.479,0.583c-0.167,-0.038 -0.238,-0.192 -0.146,-0.588c0.112,-0.492 0.137,-0.904 0.137,-1.217c0.021,-0.688 -0.667,-1.017 -1.591,-1.367c-1.346,-0.479 -3.942,-1.071 -6.971,-1.758l-5.792,-1.321Z" style="fill:#fff;fill-rule:nonzero;"/><path d="M68.033,153.833c-4,1.842 -7.812,1.104 -10.8,-0.233c-2.096,-0.933 -5.446,-3.204 -6.842,-7.371c-1.046,-3.129 -0.971,-6.608 1.075,-11.204c0.854,-1.908 1.487,-2.996 2.304,-4.329c0.675,-1.104 1.392,-1.967 1.896,-2.85c0.183,-0.325 0.392,-0.383 0.579,-0.3c0.246,0.113 0.575,0.371 1.625,0.912c0.992,0.513 2.7,1.237 3.292,1.575c0.446,0.237 0.667,0.412 0.542,0.687c-0.108,0.246 -0.383,0.196 -0.817,0.004c-0.967,-0.392 -2.225,-0.475 -3.371,-0.063c-1.533,0.538 -3.438,2.571 -4.704,5.408c-1.196,2.683 -1.3,4.742 -0.671,6.65c1.063,3.171 3.729,5.062 6.721,6.396c7.337,3.271 13.463,-0.688 15.308,-4.817c1.221,-2.746 1.654,-4.55 0.787,-6.413c-0.354,-0.787 -1.067,-1.587 -1.567,-1.958c-0.454,-0.312 -0.55,-0.429 -0.437,-0.675c0.096,-0.217 0.337,-0.179 0.583,-0.071c0.371,0.163 2.888,1.733 3.8,2.508c0.454,0.388 0.554,0.579 0.537,1.2c-0.058,1.454 -0.888,3.892 -1.767,5.867c-1.883,4.221 -4.387,7.354 -8.075,9.075Z" style="fill:#fff;fill-rule:nonzero;"/><path d="M65.258,111.338c-0.396,-0.433 -0.512,-0.779 -0.346,-0.992c0.167,-0.212 0.425,-0.271 1.387,-0.079l20.692,4.358l-9.625,-19.054c-0.258,-0.542 -0.371,-0.842 -0.183,-1.083c0.183,-0.242 0.575,-0.192 1.2,0.163l18.375,10.333c1.867,1.058 2.85,1.392 3.708,0.779c0.842,-0.587 1.279,-1.104 1.55,-1.45c0.183,-0.242 0.354,-0.408 0.517,-0.283c0.212,0.167 0.046,0.55 -0.246,0.921c-0.517,0.667 -3.446,4.292 -4.354,5.296c-0.525,0.575 -0.729,0.671 -0.892,0.55c-0.134,-0.104 -0.129,-0.275 -0.067,-0.521c0.071,-0.204 -0.212,-0.554 -1.042,-1.025l-12.987,-7.483l-0.083,0.104l7.621,15.196c0.779,1.587 0.912,1.904 0.729,2.146c-0.183,0.242 -0.925,0.092 -2.058,-0.096c-1.725,-0.312 -7.442,-1.362 -8.438,-1.621c-0.742,-0.196 -5.346,-1.196 -8.071,-1.808l-0.083,0.104l9.55,9.608c0.441,0.425 0.766,0.721 1.192,1.054c0.508,0.392 1.016,0.229 1.475,-0.142c0.479,-0.396 0.796,-0.75 1,-1.017c0.167,-0.217 0.366,-0.358 0.5,-0.258c0.238,0.187 0.104,0.471 -0.204,0.871c-0.867,1.121 -1.875,2.258 -2.25,2.742c-0.392,0.508 -1.304,1.85 -1.963,2.704c-0.209,0.267 -0.425,0.438 -0.667,0.254c-0.133,-0.104 -0.063,-0.304 0.142,-0.575c0.167,-0.212 0.313,-0.4 0.542,-0.863c0.417,-0.871 -0.458,-1.888 -1.262,-2.725l-15.358,-16.108Z" style="fill:#fff;fill-rule:nonzero;"/><path d="M100.367,86.292c-3.275,-3.946 -3.879,-4.675 -4.621,-5.462c-0.787,-0.838 -1.342,-1.083 -2.346,-0.55c-0.25,0.121 -0.717,0.458 -1.079,0.762c-0.284,0.238 -0.483,0.313 -0.633,0.133c-0.154,-0.183 -0.012,-0.387 0.375,-0.708c0.7,-0.583 1.475,-1.183 2.125,-1.721c0.696,-0.534 1.317,-1.004 1.679,-1.308c0.829,-0.687 6,-4.979 6.471,-5.417c0.45,-0.463 0.821,-0.858 0.987,-1.083c0.108,-0.133 0.2,-0.342 0.329,-0.45c0.129,-0.104 0.242,-0.025 0.35,0.104c0.15,0.183 0.279,0.604 1.192,1.863c0.192,0.279 1.087,1.467 1.296,1.821c0.079,0.15 0.158,0.35 -0.025,0.5c-0.179,0.154 -0.342,0.067 -0.533,-0.171c-0.15,-0.179 -0.546,-0.6 -0.933,-0.804c-0.571,-0.317 -1.087,-0.412 -2.517,0.512c-0.483,0.313 -3.254,2.525 -3.771,2.958c-0.129,0.104 -0.121,0.229 0.033,0.408l5.454,6.571c0.154,0.183 0.263,0.262 0.421,0.133c0.571,-0.471 3.558,-2.954 4.112,-3.5c0.579,-0.571 0.904,-0.971 0.921,-1.425c0.008,-0.362 0.004,-0.575 0.133,-0.683c0.104,-0.087 0.225,-0.1 0.354,0.058c0.133,0.154 0.371,0.654 1.371,2.067c0.404,0.542 1.188,1.642 1.337,1.825c0.175,0.209 0.413,0.492 0.179,0.688c-0.183,0.15 -0.321,0.092 -0.429,-0.038c-0.242,-0.242 -0.521,-0.575 -0.879,-0.85c-0.562,-0.412 -1.25,-0.5 -2.296,0.196c-0.538,0.358 -3.129,2.467 -3.754,2.983c-0.129,0.108 -0.067,0.233 0.063,0.388l1.704,2.054c0.733,0.883 2.687,3.292 3.342,4.025c1.537,1.746 2.279,1.792 4.925,-0.408c0.679,-0.562 1.766,-1.467 2.183,-2.337c0.417,-0.875 0.275,-1.679 -0.425,-2.892c-0.188,-0.329 -0.221,-0.479 -0.038,-0.629c0.204,-0.171 0.379,0.038 0.596,0.296c0.496,0.596 1.754,2.537 2.054,3.162c0.379,0.825 0.146,1.021 -0.842,1.842c-1.95,1.617 -3.417,2.75 -4.558,3.65c-1.158,0.875 -1.983,1.521 -2.763,2.167c-0.287,0.237 -0.858,0.712 -1.458,1.254c-0.6,0.496 -1.229,1.108 -1.75,1.542c-0.337,0.279 -0.583,0.35 -0.733,0.171c-0.108,-0.129 -0.071,-0.296 0.242,-0.554c0.388,-0.321 0.658,-0.633 0.85,-0.879c0.433,-0.533 0.088,-1.212 -0.433,-2.054c-0.779,-1.196 -2.479,-3.25 -4.467,-5.637l-3.796,-4.571Z" style="fill:#fff;fill-rule:nonzero;"/><path d="M123.313,60.229l-4.321,2.571c-1.679,1.012 -2.304,1.554 -2.383,2.45c-0.046,0.608 0.004,1.042 0.075,1.313c0.071,0.267 0.05,0.437 -0.125,0.533c-0.208,0.117 -0.35,0 -0.529,-0.321c-0.262,-0.475 -1.2,-3.467 -1.275,-3.737c-0.125,-0.429 -0.138,-0.658 0.042,-0.758c0.233,-0.129 0.696,0 1.463,-0.354c0.904,-0.387 2.058,-0.954 3.029,-1.496l11.671,-6.517c0.942,-0.529 1.542,-0.979 1.95,-1.283c0.392,-0.337 0.596,-0.525 0.713,-0.592c0.208,-0.117 0.333,0.042 0.583,0.488c0.346,0.617 1.392,2.7 1.821,3.467c0.134,0.308 0.175,0.521 -0.004,0.621c-0.238,0.129 -0.375,0.017 -0.65,-0.412l-0.213,-0.304c-0.487,-0.733 -1.746,-1.117 -4.4,0.292l-3.763,1.983l6.75,12.083c1.513,2.708 2.812,5.037 3.671,6.221c0.546,0.775 1.087,1.325 2.037,0.95c0.446,-0.171 1.125,-0.475 1.567,-0.721c0.325,-0.179 0.521,-0.175 0.604,-0.029c0.117,0.208 -0.071,0.429 -0.396,0.608c-1.942,1.087 -3.85,2.033 -4.675,2.496c-0.679,0.379 -2.483,1.504 -3.662,2.162c-0.384,0.217 -0.638,0.242 -0.754,0.033c-0.083,-0.146 -0.012,-0.3 0.337,-0.5c0.442,-0.246 0.762,-0.5 0.996,-0.708c0.525,-0.446 0.337,-1.196 -0.05,-2.096c-0.542,-1.321 -1.846,-3.65 -3.358,-6.363l-6.75,-12.079Z" style="fill:#fff;fill-rule:nonzero;"/><path d="M153.142,46.746l-4.742,1.692c-1.842,0.671 -2.558,1.083 -2.808,1.946c-0.163,0.587 -0.196,1.025 -0.179,1.304c0.021,0.275 -0.033,0.437 -0.225,0.5c-0.225,0.075 -0.342,-0.067 -0.459,-0.421c-0.167,-0.512 -0.512,-3.633 -0.533,-3.908c-0.037,-0.45 -0.004,-0.671 0.188,-0.738c0.258,-0.083 0.683,0.133 1.504,-0.067c0.963,-0.204 2.204,-0.542 3.263,-0.888l12.708,-4.15c1.025,-0.337 1.7,-0.662 2.158,-0.888c0.45,-0.25 0.687,-0.4 0.817,-0.442c0.221,-0.075 0.317,0.108 0.475,0.592c0.221,0.671 0.85,2.916 1.121,3.754c0.071,0.329 0.071,0.542 -0.121,0.604c-0.258,0.083 -0.375,-0.054 -0.563,-0.525l-0.146,-0.342c-0.337,-0.812 -1.5,-1.429 -4.375,-0.558l-4.075,1.225l4.3,13.154c0.963,2.954 1.792,5.488 2.404,6.817c0.388,0.863 0.813,1.508 1.817,1.321c0.471,-0.083 1.2,-0.25 1.679,-0.404c0.354,-0.117 0.546,-0.075 0.596,0.087c0.075,0.225 -0.15,0.404 -0.504,0.521c-2.117,0.692 -4.171,1.254 -5.071,1.55c-0.733,0.242 -2.725,0.996 -4.008,1.417c-0.417,0.138 -0.671,0.113 -0.746,-0.112c-0.054,-0.158 0.042,-0.3 0.429,-0.425c0.483,-0.158 0.846,-0.346 1.112,-0.504c0.6,-0.337 0.563,-1.108 0.354,-2.067c-0.279,-1.404 -1.108,-3.938 -2.075,-6.892l-4.296,-13.154Z" style="fill:#fff;fill-rule:nonzero;"/><path d="M181.233,47.817c-0.775,-5.075 -0.917,-6.004 -1.146,-7.067c-0.238,-1.121 -0.658,-1.638 -1.421,-1.692c-0.379,-0.046 -0.821,-0.012 -1.217,0.05c-0.337,0.05 -0.546,0.012 -0.587,-0.254c-0.029,-0.2 0.225,-0.308 0.758,-0.388c1.271,-0.191 3.387,-0.412 4.354,-0.562c0.833,-0.125 2.788,-0.525 4.054,-0.721c0.433,-0.067 0.712,-0.037 0.742,0.163c0.042,0.267 -0.15,0.363 -0.483,0.412c-0.333,0.05 -0.596,0.125 -0.983,0.254c-0.875,0.304 -1.058,0.912 -0.946,2.087c0.096,1.079 0.238,2.012 1.012,7.087l0.892,5.871c0.496,3.233 0.896,5.871 1.25,7.288c0.238,0.883 0.558,1.45 1.583,1.429c0.475,-0.004 1.221,-0.05 1.721,-0.125c0.367,-0.058 0.546,0.017 0.575,0.183c0.033,0.233 -0.217,0.375 -0.583,0.433c-2.2,0.333 -4.321,0.554 -5.221,0.692c-0.767,0.116 -2.854,0.537 -4.188,0.742c-0.433,0.067 -0.683,0 -0.717,-0.233c-0.029,-0.167 0.092,-0.287 0.492,-0.35c0.5,-0.075 0.888,-0.204 1.179,-0.317c0.646,-0.233 0.762,-0.829 0.713,-1.812c-0.046,-1.429 -0.446,-4.062 -0.942,-7.3l-0.892,-5.871Z" style="fill:#fff;fill-rule:nonzero;"/><path d="M205.071,56.567c-0.029,2.633 0.375,3.529 1.042,3.787c0.567,0.225 1.204,0.283 1.746,0.3c0.371,0.017 0.571,0.092 0.563,0.292c-0.008,0.271 -0.312,0.325 -0.787,0.308c-2.192,-0.079 -3.537,-0.229 -4.179,-0.254c-0.304,-0.012 -1.892,0.029 -3.646,-0.037c-0.438,-0.017 -0.742,-0.058 -0.729,-0.363c0.008,-0.204 0.213,-0.262 0.55,-0.25c0.437,0.017 1.046,0.004 1.525,-0.112c0.887,-0.238 1.058,-1.208 1.2,-4.146l1.046,-19.954c0.025,-0.675 0.142,-1.142 0.479,-1.129c0.371,0.012 0.658,0.462 1.212,1.092c0.388,0.454 5.309,6.142 10.05,11.217c2.208,2.379 6.583,7.404 7.137,7.963l0.167,0.008l0.225,-15.158c0.041,-2.058 -0.238,-2.708 -1.034,-3.079c-0.5,-0.221 -1.308,-0.25 -1.779,-0.267c-0.404,-0.017 -0.537,-0.121 -0.529,-0.325c0.008,-0.267 0.383,-0.287 0.887,-0.271c1.754,0.067 3.371,0.225 4.079,0.254c0.371,0.012 1.654,-0.042 3.308,0.021c0.438,0.017 0.775,0.063 0.767,0.333c-0.008,0.204 -0.217,0.296 -0.621,0.279c-0.337,-0.008 -0.608,-0.021 -1.017,0.067c-0.954,0.233 -1.25,0.933 -1.354,2.821l-1.162,21.267c-0.025,0.742 -0.171,1.042 -0.475,1.029c-0.371,-0.012 -0.762,-0.4 -1.121,-0.783c-2.05,-2.104 -6.204,-6.683 -9.579,-10.287c-3.542,-3.779 -7.129,-8.133 -7.713,-8.796l-0.1,-0.004l-0.158,14.179Z" style="fill:#fff;fill-rule:nonzero;"/><path d="M258.65,53.642c1.754,-4.821 2.079,-5.708 2.383,-6.746c0.329,-1.1 0.262,-1.7 -0.704,-2.304c-0.229,-0.154 -0.758,-0.383 -1.204,-0.546c-0.346,-0.129 -0.517,-0.258 -0.433,-0.483c0.079,-0.221 0.325,-0.204 0.8,-0.029c0.858,0.313 1.767,0.679 2.558,0.967c0.813,0.333 1.533,0.629 1.975,0.791c1.016,0.371 7.325,2.667 7.937,2.854c0.629,0.154 1.158,0.279 1.433,0.304c0.171,0.029 0.396,0.004 0.554,0.058c0.158,0.058 0.146,0.2 0.088,0.354c-0.083,0.225 -0.379,0.546 -1.004,1.971c-0.15,0.304 -0.721,1.679 -0.921,2.038c-0.092,0.146 -0.221,0.313 -0.446,0.229c-0.221,-0.079 -0.225,-0.262 -0.121,-0.546c0.079,-0.221 0.246,-0.771 0.221,-1.213c-0.012,-0.65 -0.187,-1.146 -1.708,-1.912c-0.512,-0.262 -3.821,-1.538 -4.454,-1.767c-0.158,-0.058 -0.258,0.012 -0.337,0.233l-2.921,8.025c-0.083,0.221 -0.096,0.358 0.092,0.429c0.7,0.254 4.346,1.583 5.1,1.783c0.784,0.217 1.296,0.292 1.696,0.079c0.313,-0.171 0.5,-0.283 0.658,-0.225c0.125,0.046 0.196,0.142 0.129,0.333c-0.071,0.192 -0.383,0.65 -1.1,2.221c-0.262,0.625 -0.817,1.858 -0.9,2.079c-0.092,0.254 -0.217,0.604 -0.504,0.5c-0.221,-0.083 -0.238,-0.233 -0.179,-0.392c0.083,-0.329 0.233,-0.742 0.288,-1.188c0.071,-0.692 -0.2,-1.329 -1.325,-1.883c-0.579,-0.284 -3.708,-1.458 -4.471,-1.733c-0.158,-0.058 -0.233,0.058 -0.304,0.246l-0.912,2.509c-0.392,1.075 -1.487,3.983 -1.792,4.912c-0.729,2.213 -0.396,2.871 2.838,4.05c0.825,0.3 2.158,0.787 3.121,0.704c0.963,-0.079 1.583,-0.608 2.279,-1.825c0.192,-0.325 0.3,-0.429 0.525,-0.35c0.254,0.092 0.158,0.346 0.046,0.662c-0.267,0.729 -1.308,2.796 -1.696,3.371c-0.521,0.742 -0.808,0.642 -2.013,0.2c-2.379,-0.862 -4.1,-1.562 -5.45,-2.092c-1.342,-0.562 -2.312,-0.95 -3.267,-1.296c-0.346,-0.129 -1.046,-0.383 -1.817,-0.625c-0.729,-0.267 -1.575,-0.504 -2.212,-0.733c-0.412,-0.15 -0.6,-0.329 -0.517,-0.55c0.054,-0.158 0.217,-0.208 0.6,-0.067c0.475,0.171 0.879,0.246 1.188,0.287c0.679,0.104 1.092,-0.537 1.554,-1.408c0.642,-1.275 1.554,-3.783 2.617,-6.7l2.033,-5.579Z" style="fill:#fff;fill-rule:nonzero;"/><path d="M286.975,69.179c-0.192,0.317 -0.204,0.467 -0.054,0.675c0.488,0.567 1.308,1.175 2.029,1.608c1.158,0.692 1.608,0.8 2.354,0.738c1.25,-0.116 2.887,-0.95 4.308,-3.325c2.458,-4.112 0.446,-6.929 -1.262,-7.954c-0.725,-0.433 -1.267,-0.717 -1.604,-0.8c-0.242,-0.063 -0.367,0.017 -0.504,0.25l-5.267,8.808Zm-2.054,-4.333c2.637,-4.404 3.121,-5.217 3.617,-6.179c0.533,-1.021 0.575,-1.621 -0.258,-2.396c-0.196,-0.196 -0.671,-0.521 -1.075,-0.762c-0.321,-0.192 -0.458,-0.354 -0.342,-0.554c0.125,-0.204 0.363,-0.142 0.796,0.121c1.538,0.917 3.308,2.096 3.917,2.458c0.987,0.592 3.237,1.821 4.137,2.358c1.825,1.087 3.663,2.425 4.588,4.433c0.483,1.033 0.758,3.204 -0.404,5.146c-1.284,2.146 -3.358,3.579 -7.704,4.204c0.637,4.787 1.096,8.562 1.729,11.379c0.617,2.65 1.688,3.562 2.067,3.913c0.288,0.246 0.529,0.433 0.758,0.571c0.233,0.138 0.296,0.296 0.213,0.442c-0.138,0.229 -0.375,0.167 -0.725,-0.042l-2.754,-1.646c-1.621,-0.971 -2.258,-1.546 -2.771,-2.404c-0.846,-1.412 -1.133,-3.433 -1.421,-6.634c-0.204,-2.287 -0.362,-5.054 -0.479,-5.712c-0.042,-0.262 -0.196,-0.396 -0.4,-0.517l-2.483,-1.562c-0.146,-0.087 -0.267,-0.083 -0.371,0.092l-0.246,0.404c-1.608,2.696 -2.979,4.983 -3.558,6.288c-0.421,0.892 -0.625,1.633 0.175,2.271c0.4,0.317 1,0.758 1.35,0.967c0.233,0.138 0.296,0.292 0.208,0.437c-0.121,0.204 -0.375,0.171 -0.754,-0.058c-1.679,-1.004 -3.771,-2.371 -4.204,-2.633c-0.55,-0.329 -2.429,-1.333 -3.588,-2.025c-0.379,-0.225 -0.529,-0.433 -0.408,-0.638c0.087,-0.146 0.254,-0.163 0.604,0.046c0.433,0.258 0.817,0.408 1.112,0.508c0.646,0.229 1.175,-0.321 1.792,-1.092c0.875,-1.129 2.242,-3.421 3.838,-6.083l3.046,-5.1Z" style="fill:#fff;fill-rule:nonzero;"/><path d="M314.638,86.388c-0.179,0.2 -0.15,0.321 -0.071,0.433c0.179,0.254 0.533,0.621 1.108,1.142c0.825,0.746 1.467,1.146 2.229,1.154c1.129,0.063 2.321,-0.5 3.429,-1.725c1.517,-1.679 2.533,-4.767 0.379,-6.712c-0.35,-0.317 -0.575,-0.521 -0.871,-0.696c-0.221,-0.108 -0.362,-0.054 -0.612,0.221l-5.592,6.183Zm1.496,4.992c-0.187,-0.85 -0.604,-1.546 -1.538,-2.479c-0.425,-0.433 -0.675,-0.662 -1.05,-1c-0.1,-0.092 -0.196,-0.087 -0.308,0.042l-5.367,5.933c-1.496,1.65 -1.804,2.142 -1.296,3.192c0.425,0.888 0.979,1.433 1.554,1.954c1.125,1.017 3.571,2.138 5.925,-0.462c1.404,-1.554 2.779,-4.133 2.079,-7.179Zm-4.112,-8.133c3.442,-3.804 4.075,-4.504 4.75,-5.35c0.717,-0.9 0.879,-1.479 0.212,-2.4c-0.154,-0.233 -0.558,-0.642 -0.908,-0.958c-0.275,-0.25 -0.379,-0.438 -0.221,-0.613c0.158,-0.175 0.379,-0.067 0.754,0.271c1.325,1.2 2.837,2.704 3.333,3.154c1.229,1.112 2.275,1.921 3.125,2.688c4.529,4.1 3.137,7.25 1.938,8.579c-1.859,2.05 -4.146,2.213 -6.517,2.071c1.417,2.558 2.317,6.6 -0.333,9.529c-2.425,2.675 -7.012,3.575 -11.621,-0.592c-0.3,-0.271 -0.979,-0.979 -1.683,-1.658c-0.704,-0.729 -1.433,-1.433 -1.808,-1.771c-0.275,-0.25 -0.825,-0.75 -1.45,-1.267c-0.575,-0.521 -1.271,-1.058 -1.771,-1.513c-0.325,-0.292 -0.433,-0.529 -0.275,-0.704c0.113,-0.125 0.279,-0.108 0.579,0.163c0.379,0.342 0.721,0.562 0.992,0.717c0.592,0.35 1.217,-0.088 1.971,-0.721c1.079,-0.938 2.867,-2.917 4.95,-5.221l3.983,-4.404Z" style="fill:#fff;fill-rule:nonzero;"/><path d="M334.733,115.213c0.1,0.133 0.2,0.1 0.262,0.012l4.838,-7.438c0.087,-0.108 0.204,-0.238 0.142,-0.317c-0.058,-0.079 -0.233,-0.033 -0.362,0.021l-8.504,2.504c-0.129,0.058 -0.187,0.142 -0.108,0.25l3.733,4.967Zm-5.487,-4.492c-0.1,-0.133 -0.196,-0.146 -0.396,-0.079l-4.954,1.442c-0.879,0.238 -1.629,0.592 -1.95,0.833c-0.488,0.367 -0.654,0.871 -0.025,1.708l0.304,0.404c0.242,0.321 0.25,0.446 0.088,0.567c-0.217,0.163 -0.392,0.042 -0.617,-0.254c-0.646,-0.867 -1.438,-2.088 -2.067,-2.921c-0.225,-0.3 -1.421,-1.721 -2.475,-3.125c-0.262,-0.35 -0.329,-0.554 -0.117,-0.717c0.163,-0.121 0.3,-0.054 0.463,0.163c0.179,0.246 0.492,0.6 0.683,0.796c1.092,1.121 2.396,0.942 4.15,0.467l22.033,-5.958c1.025,-0.267 1.446,-0.329 1.646,-0.058c0.183,0.242 0.063,0.587 -0.354,1.325c-0.996,1.763 -8.762,14.354 -11.567,19.162c-1.654,2.85 -1.446,3.917 -1.154,4.583c0.221,0.467 0.5,0.892 0.742,1.212c0.167,0.217 0.238,0.371 0.05,0.517c-0.217,0.162 -0.45,-0.042 -1.204,-1.042c-0.729,-0.971 -2.208,-2.942 -3.779,-5.138c-0.337,-0.508 -0.579,-0.829 -0.392,-0.971c0.163,-0.125 0.296,-0.054 0.529,0.192c0.196,0.15 0.579,0.158 0.8,-0.221l4.1,-6.458c0.092,-0.154 0.087,-0.275 -0.017,-0.412l-4.521,-6.017Z" style="fill:#fff;fill-rule:nonzero;"/><path d="M351.608,135.554l0.071,0.154c1.625,0.496 8.288,2.767 9.746,3.154c1.412,0.371 2.496,0.679 3.013,0.429c0.333,-0.158 0.488,-0.383 0.404,-0.717c-0.071,-0.304 -0.067,-0.454 0.117,-0.542c0.212,-0.1 0.346,0.021 0.504,0.358c0.308,0.642 1.021,2.358 1.412,3.183c0.45,0.942 1.346,2.575 1.796,3.512c0.146,0.304 0.187,0.546 -0.025,0.65c-0.213,0.1 -0.346,-0.021 -0.492,-0.325c-0.204,-0.429 -0.691,-1.129 -1.183,-1.608c-0.817,-0.767 -1.95,-1.496 -3.858,-2.196c-1.363,-0.504 -8.133,-2.913 -9.725,-3.425c-0.904,1.783 -4.471,10.825 -5.029,12.55c-0.638,1.954 -1.35,3.979 -1.204,5.929c0.071,1.092 0.275,1.742 0.45,2.108c0.1,0.213 0.129,0.425 -0.054,0.513c-0.217,0.1 -0.379,-0.008 -0.654,-0.587l-1.271,-2.646c-0.437,-0.917 -0.7,-1.463 -0.946,-2.133c-0.633,-1.717 -0.358,-2.858 0.171,-4.721c0.546,-1.908 4.708,-11.275 5.283,-12.337l0.3,-0.55l-0.075,-0.154l-2.771,1.325c-2.8,1.342 -5.204,2.496 -6.471,3.212c-0.825,0.467 -1.363,1.063 -1.121,1.883c0.146,0.454 0.404,1.154 0.596,1.55c0.113,0.246 0.096,0.442 -0.054,0.512c-0.217,0.104 -0.425,-0.1 -0.583,-0.429c-0.817,-1.708 -1.642,-3.667 -2.008,-4.429c-0.333,-0.7 -1.346,-2.579 -1.929,-3.796c-0.188,-0.396 -0.2,-0.654 0.017,-0.754c0.15,-0.071 0.3,0.004 0.475,0.371c0.217,0.458 0.454,0.792 0.646,1.037c0.412,0.55 1.158,0.383 2.1,0.083c1.35,-0.462 3.754,-1.612 6.554,-2.954l5.358,-2.567c4.629,-2.217 5.483,-2.625 6.425,-3.15c1.008,-0.558 1.379,-1.033 1.112,-2.142c-0.058,-0.271 -0.275,-0.804 -0.479,-1.229c-0.158,-0.338 -0.187,-0.55 0.025,-0.65c0.212,-0.104 0.379,0.083 0.596,0.537c0.775,1.617 1.6,3.575 1.95,4.308c0.35,0.729 1.358,2.604 1.854,3.637c0.204,0.425 0.246,0.671 0.033,0.771c-0.212,0.104 -0.362,-0.05 -0.479,-0.296c-0.146,-0.304 -0.262,-0.471 -0.5,-0.808c-0.546,-0.75 -1.179,-0.746 -2.275,-0.296c-1,0.408 -1.854,0.817 -6.483,3.029l-1.338,0.642Z" style="fill:#fff;fill-rule:nonzero;"/><path d="M361.383,174.229c0.038,0.167 0.142,0.175 0.233,0.117l7.437,-4.842c0.125,-0.063 0.279,-0.133 0.258,-0.233c-0.025,-0.096 -0.204,-0.125 -0.346,-0.129l-8.788,-1.15c-0.142,0 -0.233,0.054 -0.2,0.188l1.404,6.05Zm-3.2,-6.329c-0.041,-0.163 -0.121,-0.212 -0.333,-0.233l-5.112,-0.683c-0.9,-0.142 -1.729,-0.121 -2.121,-0.029c-0.596,0.137 -0.954,0.533 -0.717,1.55l0.112,0.496c0.096,0.392 0.05,0.508 -0.146,0.554c-0.262,0.058 -0.375,-0.121 -0.458,-0.483c-0.246,-1.054 -0.475,-2.492 -0.713,-3.508c-0.079,-0.363 -0.6,-2.15 -0.996,-3.858c-0.1,-0.429 -0.079,-0.642 0.183,-0.7c0.196,-0.046 0.296,0.071 0.354,0.333c0.071,0.296 0.208,0.746 0.304,1.004c0.546,1.467 1.808,1.833 3.608,2.108l22.567,3.467c1.042,0.171 1.45,0.288 1.525,0.613c0.071,0.3 -0.179,0.563 -0.863,1.067c-1.625,1.208 -13.821,9.583 -18.333,12.846c-2.667,1.938 -2.908,2.996 -2.913,3.725c0.017,0.517 0.1,1.017 0.192,1.412c0.058,0.263 0.067,0.433 -0.167,0.488c-0.262,0.063 -0.396,-0.221 -0.679,-1.433c-0.275,-1.188 -0.829,-3.587 -1.375,-6.233c-0.104,-0.6 -0.196,-0.992 0.033,-1.05c0.2,-0.042 0.296,0.075 0.404,0.396c0.121,0.212 0.471,0.375 0.825,0.121l6.362,-4.25c0.146,-0.104 0.192,-0.217 0.154,-0.383l-1.7,-7.333Z" style="fill:#fff;fill-rule:nonzero;"/><path d="M358.942,197.913c-2.629,0.108 -3.5,0.563 -3.725,1.242c-0.196,0.575 -0.217,1.217 -0.208,1.758c0.004,0.371 -0.058,0.575 -0.262,0.575c-0.271,0.008 -0.342,-0.296 -0.35,-0.771c-0.033,-2.192 0.046,-3.546 0.033,-4.183c-0.004,-0.304 -0.129,-1.888 -0.158,-3.646c-0.008,-0.438 0.021,-0.742 0.325,-0.746c0.2,-0.004 0.275,0.196 0.279,0.533c0.004,0.437 0.05,1.046 0.191,1.517c0.283,0.875 1.267,0.992 4.2,0.979l19.987,-0.021c0.675,-0.012 1.15,0.083 1.154,0.421c0.008,0.371 -0.425,0.683 -1.025,1.267c-0.433,0.412 -5.85,5.629 -10.662,10.638c-2.259,2.333 -7.046,6.967 -7.575,7.55l0,0.171l15.15,-0.583c2.058,-0.067 2.696,-0.383 3.017,-1.2c0.196,-0.508 0.183,-1.321 0.175,-1.792c-0.004,-0.404 0.092,-0.542 0.296,-0.546c0.271,0 0.308,0.367 0.317,0.875c0.029,1.754 -0.046,3.375 -0.033,4.083c0.004,0.371 0.129,1.65 0.154,3.308c0.008,0.437 -0.021,0.775 -0.291,0.779c-0.2,0.004 -0.304,-0.196 -0.313,-0.6c-0.004,-0.337 -0.012,-0.608 -0.117,-1.013c-0.288,-0.942 -1,-1.2 -2.892,-1.204l-21.3,-0.025c-0.746,0.012 -1.05,-0.117 -1.054,-0.421c-0.008,-0.371 0.358,-0.783 0.725,-1.158c1.987,-2.158 6.337,-6.554 9.758,-10.117c3.588,-3.738 7.746,-7.554 8.375,-8.171l0,-0.104l-14.171,0.604Z" style="fill:#fff;fill-rule:nonzero;"/><path d="M77.367,302.913c3.825,-3.138 4.513,-3.704 5.258,-4.396c0.792,-0.733 1.021,-1.254 0.529,-2.204c-0.108,-0.233 -0.429,-0.671 -0.608,-0.892c-0.083,-0.1 -0.113,-0.238 -0.017,-0.317c0.146,-0.121 0.296,-0.038 0.521,0.229c0.904,1.104 2.058,2.662 2.242,2.883c0.179,0.221 1.458,1.629 2.062,2.367c0.225,0.267 0.275,0.429 0.129,0.554c-0.1,0.079 -0.229,0.021 -0.308,-0.079c-0.142,-0.171 -0.287,-0.296 -0.579,-0.55c-0.642,-0.583 -1.242,-0.417 -2.142,0.238c-0.825,0.596 -1.513,1.158 -5.333,4.3l-3.433,2.817c-3.533,2.9 -4.409,4.933 -4.55,6.813c-0.137,2.129 0.546,3.413 1.692,4.808c1.229,1.5 3.15,2.383 4.929,2.4c2.321,-0.017 4.646,-1.433 7.175,-3.508l3.062,-2.517c3.825,-3.142 4.513,-3.704 5.258,-4.396c0.792,-0.733 1.021,-1.25 0.529,-2.2c-0.112,-0.238 -0.429,-0.675 -0.608,-0.896c-0.083,-0.1 -0.112,-0.238 -0.017,-0.317c0.15,-0.121 0.296,-0.038 0.521,0.229c0.904,1.104 1.937,2.512 2.058,2.658c0.142,0.175 1.163,1.267 1.763,2c0.225,0.271 0.275,0.433 0.129,0.554c-0.1,0.079 -0.229,0.025 -0.308,-0.075c-0.142,-0.171 -0.287,-0.3 -0.579,-0.554c-0.687,-0.537 -1.242,-0.412 -2.142,0.242c-0.825,0.596 -1.513,1.158 -5.338,4.3l-2.621,2.154c-2.65,2.175 -5.833,4.296 -9.183,3.762c-3.021,-0.479 -4.775,-2.117 -5.963,-3.562c-0.683,-0.833 -2.617,-3.388 -2.404,-6.479c0.167,-2.146 1.117,-4.487 4.696,-7.425l3.579,-2.942Z" style="fill:#00437b;fill-rule:nonzero;"/><path d="M98.442,340.396c-1.508,2.125 -1.746,2.975 -1.213,3.687c0.388,0.492 0.929,0.933 1.154,1.104c0.129,0.096 0.167,0.204 0.092,0.304c-0.113,0.15 -0.304,0.087 -0.613,-0.138c-1.446,-1.083 -2.404,-1.921 -2.633,-2.092c-0.229,-0.171 -1.354,-0.892 -2.496,-1.746c-0.254,-0.187 -0.388,-0.329 -0.254,-0.508c0.075,-0.1 0.187,-0.096 0.317,0c0.204,0.154 0.679,0.471 1.154,0.629c0.771,0.296 1.446,-0.346 3.175,-2.658l10.909,-14.542c0.742,-0.992 1.025,-1.212 1.225,-1.063c0.204,0.154 0.221,1.037 0.284,1.479c0.058,0.717 0.787,7.638 1.567,14.754c0.5,4.571 0.954,9.742 1.142,11.187l9.367,-13.117c1.208,-1.667 1.45,-2.358 0.813,-3.15c-0.379,-0.446 -0.946,-0.908 -1.15,-1.058c-0.175,-0.133 -0.146,-0.229 -0.071,-0.329c0.117,-0.154 0.337,-0.029 0.642,0.2c1.146,0.854 2.308,1.842 2.587,2.05c0.279,0.208 1.175,0.758 2.217,1.538c0.279,0.212 0.437,0.371 0.325,0.521c-0.079,0.104 -0.238,0.104 -0.417,-0.029c-0.125,-0.096 -0.304,-0.229 -0.662,-0.379c-0.975,-0.45 -1.492,0.033 -2.633,1.558l-11.179,14.85c-1.254,1.675 -1.4,1.767 -1.575,1.633c-0.204,-0.15 -0.3,-0.658 -0.642,-3.013c-0.087,-0.462 -0.954,-6.933 -1.483,-11.842c-0.575,-5.379 -1.05,-10.725 -1.183,-12.25l-8.762,12.417Z" style="fill:#00437b;fill-rule:nonzero;"/><path d="M138.617,359.654c-1.288,2.758 -2.35,5.029 -2.771,6.304c-0.3,0.875 -0.425,1.588 0.383,2.104c0.375,0.246 0.979,0.6 1.242,0.721c0.171,0.079 0.187,0.192 0.146,0.279c-0.067,0.142 -0.25,0.163 -0.567,0.017c-1.579,-0.742 -3.35,-1.675 -3.496,-1.742c-0.142,-0.067 -1.992,-0.825 -2.854,-1.229c-0.317,-0.146 -0.433,-0.271 -0.354,-0.446c0.042,-0.083 0.138,-0.142 0.313,-0.063c0.258,0.121 0.629,0.225 0.917,0.288c0.629,0.154 1.067,-0.412 1.571,-1.192c0.708,-1.138 1.767,-3.408 3.058,-6.167l2.363,-5.058c2.096,-4.483 2.471,-5.288 2.841,-6.233c0.4,-1.004 0.342,-1.629 -0.225,-2.067c-0.275,-0.233 -0.633,-0.438 -0.837,-0.533c-0.113,-0.05 -0.2,-0.163 -0.15,-0.279c0.083,-0.171 0.254,-0.163 0.567,-0.017c0.95,0.442 2.721,1.375 2.867,1.442c0.142,0.067 1.992,0.825 2.854,1.233c0.317,0.146 0.433,0.271 0.35,0.446c-0.05,0.113 -0.191,0.117 -0.308,0.063c-0.2,-0.092 -0.388,-0.146 -0.758,-0.246c-0.842,-0.221 -1.3,0.158 -1.829,1.138c-0.488,0.896 -0.863,1.7 -2.958,6.183l-2.363,5.054Z" style="fill:#00437b;fill-rule:nonzero;"/><path d="M165.725,374.804c2.842,-3.658 9.713,-13.325 10.954,-15.367c0.275,-0.421 0.504,-0.821 0.579,-1.096c0.063,-0.246 0.046,-0.575 -0.221,-0.808c-0.337,-0.217 -0.796,-0.337 -1.138,-0.425c-0.183,-0.046 -0.329,-0.117 -0.287,-0.271c0.046,-0.183 0.246,-0.196 0.738,-0.067c1.229,0.317 2.621,0.771 2.987,0.863c0.187,0.05 1.533,0.296 2.421,0.521c0.337,0.087 0.508,0.196 0.471,0.35c-0.041,0.154 -0.183,0.183 -0.429,0.121c-0.213,-0.054 -0.888,-0.229 -1.567,-0.013c-0.471,0.175 -1.067,0.579 -2.434,2.454c-0.558,0.775 -3.042,4.071 -5.579,7.446c-3.025,4.004 -5.263,6.971 -6.354,8.296c-1.333,1.625 -1.583,2.083 -1.892,2.004c-0.367,-0.096 -0.412,-0.567 -0.617,-2.192l-2.692,-20.767c-0.238,-1.896 -0.608,-2.354 -1.604,-2.938c-0.433,-0.242 -0.954,-0.375 -1.137,-0.421c-0.183,-0.05 -0.221,-0.154 -0.192,-0.279c0.046,-0.183 0.362,-0.133 0.854,-0.008c1.475,0.379 3.204,0.921 3.571,1.017c0.308,0.079 1.717,0.342 2.883,0.638c0.554,0.142 0.813,0.275 0.775,0.429c-0.042,0.154 -0.146,0.192 -0.363,0.137c-0.337,-0.087 -0.9,-0.2 -1.208,-0.146c-0.375,0.063 -0.5,0.296 -0.558,0.513c-0.1,0.396 0.025,1.446 0.175,2.762l1.862,17.246Z" style="fill:#00437b;fill-rule:nonzero;"/><path d="M195.671,368.696c0.246,-4.942 0.292,-5.829 0.279,-6.846c-0.008,-1.083 -0.238,-1.6 -1.271,-1.875c-0.25,-0.075 -0.788,-0.133 -1.075,-0.15c-0.125,-0.008 -0.25,-0.079 -0.242,-0.204c0.008,-0.192 0.171,-0.246 0.517,-0.225c0.733,0.033 1.587,0.079 2.283,0.146l1.296,0.125c0.221,0.012 6.525,0.333 7.258,0.337c0.604,-0.004 1.112,-0.042 1.371,-0.092c0.158,-0.025 0.292,-0.142 0.45,-0.133c0.096,0 0.121,0.129 0.112,0.292c-0.008,0.221 -0.187,0.592 -0.329,1.475c-0.046,0.317 -0.179,1.708 -0.262,2.083c-0.042,0.158 -0.113,0.342 -0.242,0.337c-0.187,-0.012 -0.242,-0.171 -0.229,-0.425c0.008,-0.221 0.004,-0.763 -0.133,-1.15c-0.196,-0.521 -0.496,-0.917 -2.196,-1.192c-0.538,-0.092 -3.988,-0.296 -4.338,-0.312c-0.125,-0.008 -0.196,0.083 -0.204,0.304l-0.442,8.746c-0.012,0.225 0.017,0.321 0.175,0.329c0.412,0.021 4.308,0.217 5.042,0.188c0.762,-0.021 1.208,-0.063 1.512,-0.367c0.233,-0.242 0.367,-0.392 0.496,-0.387c0.096,0.004 0.154,0.071 0.146,0.262c-0.013,0.188 -0.196,0.721 -0.346,1.763c-0.092,0.629 -0.217,1.8 -0.225,2.021c-0.017,0.254 -0.033,0.6 -0.254,0.592c-0.158,-0.008 -0.217,-0.138 -0.209,-0.3c0.017,-0.317 0.033,-0.633 -0.075,-1.05c-0.104,-0.45 -0.362,-1.004 -1.591,-1.192c-0.85,-0.137 -3.983,-0.358 -4.521,-0.387c-0.158,-0.008 -0.229,0.083 -0.233,0.212l-0.142,2.788c-0.054,1.075 -0.271,4.75 -0.275,5.417c-0.012,2.192 0.442,2.629 3.546,2.783c0.825,0.042 2.221,0.113 3.062,-0.196c0.842,-0.304 1.25,-0.921 1.538,-2.208c0.083,-0.346 0.15,-0.467 0.313,-0.458c0.187,0.008 0.175,0.262 0.167,0.483c-0.017,0.254 -0.379,2.396 -0.567,3.05c-0.267,0.817 -0.521,0.804 -1.754,0.742c-2.379,-0.121 -4.117,-0.271 -5.35,-0.367c-1.233,-0.125 -1.992,-0.196 -2.467,-0.221c-0.067,0 -0.604,-0.029 -1.271,-0.029c-0.633,-0.033 -1.367,-0.004 -1.842,-0.029c-0.35,-0.017 -0.504,-0.092 -0.496,-0.279c0.008,-0.096 0.075,-0.188 0.267,-0.179c0.283,0.017 0.667,-0.029 0.958,-0.079c0.638,-0.092 0.833,-0.783 1.004,-1.696c0.225,-1.321 0.35,-3.825 0.504,-6.867l0.283,-5.579Z" style="fill:#00437b;fill-rule:nonzero;"/><path d="M228.834,370.596c0.021,0.158 0.104,0.271 0.275,0.342c0.512,0.212 1.987,0.217 3.367,0.008c0.754,-0.113 1.621,-0.342 2.267,-0.95c0.983,-0.917 1.546,-2.733 1.187,-5.121c-0.592,-3.921 -3.017,-5.962 -6.371,-5.458c-0.941,0.146 -1.775,0.367 -2.075,0.508c-0.146,0.083 -0.225,0.225 -0.196,0.412l1.546,10.258Zm-2.921,-2.35c-0.738,-4.896 -0.867,-5.775 -1.083,-6.771c-0.221,-1.054 -0.55,-1.521 -1.616,-1.583c-0.263,-0.025 -0.8,0.025 -1.079,0.067c-0.129,0.017 -0.262,-0.025 -0.283,-0.15c-0.025,-0.188 0.121,-0.275 0.467,-0.329c1.412,-0.212 3.4,-0.417 3.558,-0.438c0.346,-0.054 2.717,-0.508 3.688,-0.65c1.975,-0.296 4.108,-0.425 5.946,0.517c0.871,0.446 2.483,1.775 2.808,3.942c0.35,2.321 -0.275,4.788 -2.704,7.817c3.067,2.904 5.621,5.375 7.733,7.05c1.963,1.529 3.363,1.671 4.163,1.679c0.612,0.008 1.05,-0.058 1.242,-0.087c0.154,-0.025 0.296,0.05 0.308,0.146c0.029,0.187 -0.15,0.279 -0.712,0.363l-2.229,0.337c-1.758,0.262 -2.562,0.225 -3.446,-0.092c-1.458,-0.517 -2.788,-1.892 -4.929,-3.975c-1.579,-1.525 -3.367,-3.408 -4.117,-4.129c-0.146,-0.104 -0.25,-0.154 -0.437,-0.125l-3.867,0.517c-0.158,0.025 -0.204,0.129 -0.183,0.283l0.112,0.754c0.454,3.012 0.829,5.487 1.183,6.783c0.229,0.896 0.521,1.558 1.483,1.542c0.45,-0.004 1.146,-0.046 1.429,-0.087c0.188,-0.029 0.267,0.058 0.279,0.15c0.025,0.158 -0.121,0.275 -0.463,0.325c-1.729,0.263 -3.717,0.463 -3.875,0.488c-0.029,0.004 -1.992,0.396 -2.933,0.537c-0.346,0.054 -0.512,0.013 -0.537,-0.175c-0.017,-0.096 0.033,-0.196 0.221,-0.225c0.283,-0.042 0.65,-0.163 0.921,-0.267c0.608,-0.221 0.662,-0.933 0.65,-1.863c-0.042,-1.342 -0.412,-3.821 -0.867,-6.829l-0.829,-5.521Z" style="fill:#00437b;fill-rule:nonzero;"/><path d="M262.592,374.892c-0.492,-0.058 -0.567,-0.167 -0.858,-0.971c-0.538,-1.492 -0.85,-2.729 -0.992,-3.217c-0.092,-0.337 -0.083,-0.512 0.063,-0.563c0.179,-0.067 0.242,0.013 0.329,0.25c0.096,0.271 0.25,0.688 0.488,1.071c1.25,2.046 3.521,2.171 5.517,1.446c2.862,-1.033 3.521,-3.6 2.829,-5.508c-0.742,-2.058 -2.042,-2.942 -5.371,-4.129l-1.742,-0.617c-4.104,-1.454 -5.488,-3.042 -6.221,-5.071c-1.154,-3.192 0.441,-6.233 4.233,-7.604c1.162,-0.421 2.071,-0.617 2.879,-0.708c0.613,-0.083 0.863,-0.142 1.1,-0.229c0.238,-0.083 0.317,-0.046 0.371,0.104c0.054,0.15 0.291,1.175 1.025,3.204c0.175,0.479 0.192,0.708 0.042,0.762c-0.179,0.067 -0.262,-0.075 -0.379,-0.304c-0.158,-0.346 -0.629,-1.087 -0.929,-1.35c-0.296,-0.263 -1.554,-1.225 -4.3,-0.229c-2.058,0.742 -3.204,2.608 -2.417,4.788c0.617,1.7 1.779,2.492 5.454,3.692l1.071,0.354c4.525,1.5 6.029,3.05 6.892,5.437c0.446,1.221 0.787,3.662 -0.742,5.867c-0.958,1.358 -2.442,2.3 -4.05,2.883c-1.404,0.508 -2.85,0.796 -4.292,0.642Z" style="fill:#00437b;fill-rule:nonzero;"/><path d="M291.217,352.446c1.5,2.646 2.737,4.829 3.533,5.908c0.538,0.754 1.046,1.267 1.938,0.908c0.417,-0.167 1.054,-0.454 1.304,-0.596c0.167,-0.092 0.267,-0.042 0.313,0.042c0.079,0.137 -0.008,0.3 -0.317,0.471c-1.517,0.858 -3.3,1.763 -3.442,1.842c-0.138,0.079 -1.829,1.15 -2.654,1.617c-0.304,0.171 -0.475,0.196 -0.567,0.029c-0.05,-0.083 -0.042,-0.196 0.125,-0.292c0.25,-0.142 0.55,-0.383 0.767,-0.579c0.488,-0.421 0.283,-1.108 -0.063,-1.971c-0.517,-1.237 -1.754,-3.417 -3.258,-6.067l-2.754,-4.858c-2.442,-4.304 -2.879,-5.075 -3.433,-5.929c-0.588,-0.904 -1.129,-1.217 -1.817,-1.012c-0.35,0.087 -0.725,0.267 -0.917,0.375c-0.113,0.062 -0.254,0.071 -0.317,-0.042c-0.092,-0.167 0.012,-0.3 0.317,-0.467c0.912,-0.517 2.696,-1.421 2.833,-1.5c0.142,-0.075 1.829,-1.146 2.658,-1.617c0.304,-0.175 0.471,-0.196 0.567,-0.029c0.063,0.108 -0.017,0.225 -0.125,0.288c-0.196,0.113 -0.342,0.233 -0.642,0.475c-0.671,0.562 -0.625,1.154 -0.129,2.154c0.446,0.912 0.883,1.687 3.321,5.992l2.758,4.858Z" style="fill:#00437b;fill-rule:nonzero;"/><path d="M315.738,335.171c1.95,2.338 3.554,4.263 4.529,5.188c0.662,0.646 1.254,1.058 2.067,0.546c0.384,-0.233 0.959,-0.633 1.179,-0.817c0.146,-0.121 0.258,-0.087 0.317,-0.017c0.1,0.121 0.042,0.296 -0.225,0.521c-1.342,1.117 -2.938,2.325 -3.058,2.425c-0.121,0.104 -1.6,1.454 -2.329,2.062c-0.267,0.225 -0.429,0.279 -0.554,0.133c-0.058,-0.075 -0.071,-0.187 0.075,-0.308c0.221,-0.183 0.471,-0.479 0.65,-0.708c0.404,-0.504 0.079,-1.142 -0.408,-1.929c-0.733,-1.125 -2.337,-3.05 -4.287,-5.392l-8.592,-10.308l-3.566,3.054c-1.492,1.288 -1.934,1.942 -1.838,2.854c0.079,0.637 0.146,0.867 0.217,1.1c0.087,0.254 0.058,0.363 -0.042,0.446c-0.071,0.062 -0.183,0.029 -0.304,-0.117c-0.204,-0.246 -1.462,-2.746 -1.575,-2.983c-0.075,-0.187 -0.242,-0.583 -0.142,-0.667c0.171,-0.142 0.617,-0.1 1.313,-0.6c0.771,-0.517 1.737,-1.237 2.029,-1.483l9.137,-7.617c0.779,-0.65 1.3,-1.167 1.629,-1.562c0.325,-0.354 0.483,-0.608 0.579,-0.692c0.125,-0.104 0.246,0.046 0.366,0.192c0.609,0.729 1.938,2.475 2.163,2.742c0.183,0.221 0.191,0.379 0.092,0.458c-0.121,0.104 -0.229,0.071 -0.537,-0.25l-0.25,-0.25c-0.679,-0.671 -1.733,-0.742 -4.112,1.158l-3.113,2.512l8.592,10.308Z" style="fill:#00437b;fill-rule:nonzero;"/><path d="M338.467,313.296c-1.342,-1.067 -2.083,-1.254 -3.058,-1.504c-0.537,-0.142 -8.646,-1.167 -10.625,-1.325c-1.412,-0.113 -2.529,0.017 -3.183,0.225c-0.546,0.175 -1.067,0.525 -1.246,0.75c-0.1,0.125 -0.246,0.208 -0.371,0.108c-0.1,-0.079 -0.096,-0.238 0.083,-0.458c0.375,-0.475 1.933,-2.275 2.029,-2.4c0.142,-0.175 0.817,-1.175 1.587,-2.142c0.217,-0.275 0.333,-0.262 0.429,-0.183c0.1,0.079 0.008,0.246 -0.071,0.55c-0.058,0.275 -0.008,0.521 0.187,0.679c0.3,0.238 0.696,0.346 1.225,0.446c1.038,0.175 10.404,1.554 11.479,1.679c-0.667,-1.3 -3.592,-8.779 -4.013,-9.929c-0.267,-0.738 -0.608,-1.175 -0.933,-1.429c-0.346,-0.279 -0.696,-0.396 -1.008,-0.158c-0.254,0.167 -0.421,0.275 -0.546,0.175c-0.1,-0.079 -0.029,-0.267 0.167,-0.517c0.513,-0.642 1.221,-1.379 1.379,-1.579c0.121,-0.146 1.467,-1.992 1.842,-2.467c0.142,-0.171 0.308,-0.283 0.408,-0.204c0.121,0.1 0.1,0.283 -0.058,0.483c-0.217,0.275 -0.496,0.825 -0.562,1.421c-0.096,0.733 -0.017,1.242 0.217,2.321c0.342,1.608 3.408,9.729 4.117,11.025c0.596,1.083 1.367,1.696 2.188,2.35l2.133,1.7c0.396,0.317 1.438,1.146 2.542,1.9c0.758,0.525 1.483,0.738 2.175,0.071c0.325,-0.308 0.808,-0.817 0.987,-1.037c0.117,-0.15 0.233,-0.142 0.308,-0.079c0.121,0.096 0.096,0.279 -0.121,0.554c-1.087,1.363 -2.404,2.867 -2.504,2.992c-0.1,0.125 -1.271,1.746 -1.862,2.492c-0.217,0.275 -0.367,0.358 -0.517,0.242c-0.075,-0.063 -0.108,-0.171 0.008,-0.321c0.183,-0.221 0.367,-0.558 0.496,-0.821c0.296,-0.575 -0.071,-1.233 -0.75,-1.858c-0.987,-0.904 -2.025,-1.733 -2.425,-2.05l-2.133,-1.7Z" style="fill:#00437b;fill-rule:nonzero;"/><path d="M207.933,2.992c-54.742,0 -106.204,21.317 -144.912,60.025c-38.708,38.708 -60.029,90.171 -60.029,144.917c0,54.742 21.321,106.204 60.029,144.912c38.708,38.708 90.171,60.025 144.912,60.025c54.742,0 106.209,-21.317 144.913,-60.025c38.712,-38.708 60.029,-90.171 60.029,-144.912c0,-54.746 -21.317,-106.208 -60.029,-144.917c-38.704,-38.708 -90.171,-60.025 -144.913,-60.025Zm0,412.867c-55.537,0 -107.754,-21.625 -147.029,-60.9c-39.271,-39.271 -60.9,-91.488 -60.9,-147.025c0,-55.542 21.629,-107.758 60.9,-147.029c39.275,-39.275 91.492,-60.9 147.029,-60.9c55.538,0 107.754,21.625 147.029,60.9c39.271,39.271 60.9,91.488 60.9,147.029c0,55.538 -21.629,107.754 -60.9,147.025c-39.275,39.275 -91.488,60.9 -147.029,60.9Z" style="fill:#00437b;fill-rule:nonzero;"/></g></svg>